<svg version="1.1" xmlns="http://www.w3.org/2000/svg" viewBox="0 0 897.7838287353516 382.3074657629323" width="897.7838287353516" height="382.3074657629323">
  <!-- svg-source:excalidraw -->
  
  <defs>
    <style class="style-fonts">
      @font-face {
        font-family: "Virgil";
        src: url("https://excalidraw.com/Virgil.woff2");
      }
      @font-face {
        font-family: "Cascadia";
        src: url("https://excalidraw.com/Cascadia.woff2");
      }
      @font-face {
        font-family: "Assistant";
        src: url("https://excalidraw.com/Assistant-Regular.woff2");
      }
    </style>
    
  </defs>
  <g transform="translate(10 22.30746576293228) rotate(0 32.767974853515625 10)"><text x="0" y="14.016" font-family="Virgil, Segoe UI Emoji" font-size="16px" fill="#1971c2" text-anchor="start" style="white-space: pre;" direction="ltr" dominant-baseline="alphabetic">services:</text></g><g transform="translate(20.8896199160381 54.70746728881119) rotate(0 52.99945068359375 9.924999952316284)"><text x="0" y="13.910879933166504" font-family="Virgil, Segoe UI Emoji" font-size="15.879999923706055px" fill="#f08c00" text-anchor="start" style="white-space: pre;" direction="ltr" dominant-baseline="alphabetic">oedisi_broker:</text></g><g transform="translate(35.8896199160381 84.48246714576004) rotate(0 18.809837341308594 9.924999952316284)"><text x="0" y="13.910879933166504" font-family="Virgil, Segoe UI Emoji" font-size="15.879999923706055px" fill="#2f9e44" text-anchor="start" style="white-space: pre;" direction="ltr" dominant-baseline="alphabetic">build:</text></g><g transform="translate(51.8896199160381 114.25746700270889) rotate(0 73.69903564453125 9.924999952316284)"><text x="0" y="13.910879933166504" font-family="Virgil, Segoe UI Emoji" font-size="15.879999923706055px" fill="#e03131" text-anchor="start" style="white-space: pre;" direction="ltr" dominant-baseline="alphabetic">context: ../broker/.</text></g><g transform="translate(35.8896199160381 144.03246685965775) rotate(0 44.94831085205078 9.924999952316284)"><text x="0" y="13.910879933166504" font-family="Virgil, Segoe UI Emoji" font-size="15.879999923706054px" fill="#2f9e44" text-anchor="start" style="white-space: pre;" direction="ltr" dominant-baseline="alphabetic">environment:</text></g><g transform="translate(51.8896199160381 173.8074667166066) rotate(0 53.404396057128906 9.924999952316284)"><text x="0" y="13.910879933166504" font-family="Virgil, Segoe UI Emoji" font-size="15.879999923706055px" fill="#e03131" text-anchor="start" style="white-space: pre;" direction="ltr" dominant-baseline="alphabetic">PORT: '8766'</text></g><g transform="translate(35.8896199160381 203.58246657355545) rotate(0 64.85387420654297 9.924999952316284)"><text x="0" y="13.910879933166504" font-family="Virgil, Segoe UI Emoji" font-size="15.879999923706055px" fill="#2f9e44" text-anchor="start" style="white-space: pre;" direction="ltr" dominant-baseline="alphabetic">hostname: broker</text></g><g transform="translate(35.8896199160381 233.3574664305043) rotate(0 117.72624969482422 9.924999952316284)"><text x="0" y="13.910879933166504" font-family="Virgil, Segoe UI Emoji" font-size="15.879999923706055px" fill="#2f9e44" text-anchor="start" style="white-space: pre;" direction="ltr" dominant-baseline="alphabetic">image: aadillatif/oedisi_broker</text></g><g transform="translate(35.8896199160381 263.13246628745316) rotate(0 35.28533935546875 9.924999952316284)"><text x="0" y="13.910879933166504" font-family="Virgil, Segoe UI Emoji" font-size="15.879999923706055px" fill="#2f9e44" text-anchor="start" style="white-space: pre;" direction="ltr" dominant-baseline="alphabetic">networks:</text></g><g transform="translate(51.8896199160381 292.907466144402) rotate(0 73.41319274902344 9.924999952316284)"><text x="0" y="13.910879933166504" font-family="Virgil, Segoe UI Emoji" font-size="15.879999923706054px" fill="#e03131" text-anchor="start" style="white-space: pre;" direction="ltr" dominant-baseline="alphabetic">custom-network: {}</text></g><g transform="translate(35.8896199160381 322.68246600135086) rotate(0 22.446365356445312 9.924999952316284)"><text x="0" y="13.910879933166504" font-family="Virgil, Segoe UI Emoji" font-size="15.879999923706055px" fill="#2f9e44" text-anchor="start" style="white-space: pre;" direction="ltr" dominant-baseline="alphabetic">ports:</text></g><g transform="translate(51.8896199160381 352.4574658582997) rotate(0 50.172813415527344 9.924999952316284)"><text x="0" y="13.910879933166504" font-family="Virgil, Segoe UI Emoji" font-size="15.879999923706055px" fill="#e03131" text-anchor="start" style="white-space: pre;" direction="ltr" dominant-baseline="alphabetic">- 8766:8766</text></g><g transform="translate(181.80006408691406 14.907510013420563) rotate(0 240.87985229492188 10)"><text x="0" y="14.016" font-family="Virgil, Segoe UI Emoji" font-size="16px" fill="#9c36b5" text-anchor="start" style="white-space: pre;" direction="ltr" dominant-baseline="alphabetic">Services lists all federates participating in the co-simulation</text></g><g stroke-linecap="round"><g transform="translate(161.0000762939453 18.907571048576813) rotate(0 -33.20001220703125 2.79998779296875)"><path d="M1.19 0.67 C-4.3 -0.49, -22.83 -9.28, -34 -7 C-45.16 -4.73, -60.54 10.8, -65.82 14.35 M0.35 -0.02 C-4.69 -1.5, -20.81 -10.68, -31.91 -8.6 C-43.02 -6.53, -60.76 8.96, -66.28 12.4" stroke="#9c36b5" stroke-width="2" fill="none"></path></g><g transform="translate(161.0000762939453 18.907571048576813) rotate(0 -33.20001220703125 2.79998779296875)"><path d="M-55.15 -4.18 C-56.39 -2.55, -58.21 3.92, -66.28 12.4 M-55.15 -4.18 C-59.89 1.16, -63.76 8.54, -66.28 12.4" stroke="#9c36b5" stroke-width="2" fill="none"></path></g><g transform="translate(161.0000762939453 18.907571048576813) rotate(0 -33.20001220703125 2.79998779296875)"><path d="M-47.09 6.85 C-50.04 6.22, -53.56 10.36, -66.28 12.4 M-47.09 6.85 C-54.82 8.23, -61.62 11.62, -66.28 12.4" stroke="#9c36b5" stroke-width="2" fill="none"></path></g></g><mask></mask><g transform="translate(276.5522003173828 128.1075222204518) rotate(0 252.46380615234375 20)"><text x="0" y="14.016" font-family="Virgil, Segoe UI Emoji" font-size="16px" fill="#846358" text-anchor="start" style="white-space: pre;" direction="ltr" dominant-baseline="alphabetic">if __name__ == "__main__":</text><text x="0" y="34.016" font-family="Virgil, Segoe UI Emoji" font-size="16px" fill="#846358" text-anchor="start" style="white-space: pre;" direction="ltr" dominant-baseline="alphabetic">    uvicorn.run(app, host="0.0.0.0", port=int(os.environ['PORT']))</text></g><g stroke-linecap="round"><g transform="translate(258.40016174316406 134.51944945852512) rotate(0 -41.60003662109375 23.394050113873504)"><path d="M0.76 -0.27 C-7.26 5.01, -33.17 24.37, -47.02 32.11 C-60.86 39.85, -76.08 43.86, -82.29 46.16 M-0.3 -1.46 C-8.56 3.42, -34.15 22.16, -47.87 30.26 C-61.58 38.37, -76.45 44.43, -82.58 47.15" stroke="#9c36b5" stroke-width="2" fill="none"></path></g><g transform="translate(258.40016174316406 134.51944945852512) rotate(0 -41.60003662109375 23.394050113873504)"><path d="M-68.42 33.69 C-74.35 39.33, -78.58 45.77, -82.58 47.15 M-68.42 33.69 C-72.19 37.75, -74.89 41.05, -82.58 47.15" stroke="#9c36b5" stroke-width="2" fill="none"></path></g><g transform="translate(258.40016174316406 134.51944945852512) rotate(0 -41.60003662109375 23.394050113873504)"><path d="M-63.08 45.94 C-71.13 46.84, -77.45 48.49, -82.58 47.15 M-63.08 45.94 C-68.06 46.93, -72.09 47.19, -82.58 47.15" stroke="#9c36b5" stroke-width="2" fill="none"></path></g></g><mask></mask><g stroke-linecap="round"><g transform="translate(313.36935904931795 257.8209488902416) rotate(20.792510096047028 -17.606495050763556 2.49180620834386)"><path d="M0.45 0.03 C-0.91 0.51, -2.39 2.39, -8.38 3.17 C-14.37 3.95, -31.03 4.48, -35.47 4.7 M0.02 -0.43 C-1.37 -0.11, -2.7 1.5, -8.69 2.44 C-14.69 3.37, -31.6 4.78, -35.94 5.16" stroke="#9c36b5" stroke-width="2" fill="none"></path></g><g transform="translate(313.36935904931795 257.8209488902416) rotate(20.792510096047028 -17.606495050763556 2.49180620834386)"><path d="M-23.84 -0.48 C-26.87 1.28, -29.42 2.13, -35.94 5.16 M-23.84 -0.48 C-26.99 0.77, -29.54 2.08, -35.94 5.16" stroke="#9c36b5" stroke-width="2" fill="none"></path></g><g transform="translate(313.36935904931795 257.8209488902416) rotate(20.792510096047028 -17.606495050763556 2.49180620834386)"><path d="M-23.05 8.62 C-26.3 8.07, -29.06 6.61, -35.94 5.16 M-23.05 8.62 C-26.42 7.61, -29.16 6.65, -35.94 5.16" stroke="#9c36b5" stroke-width="2" fill="none"></path></g></g><mask></mask><g transform="translate(329.0001983642578 246.10750696166275) rotate(0 203.63986206054688 10)"><text x="0" y="14.016" font-family="Virgil, Segoe UI Emoji" font-size="16px" fill="#9c36b5" text-anchor="start" style="white-space: pre;" direction="ltr" dominant-baseline="alphabetic">Multiple services might end up using the same image</text></g><g stroke-linecap="round"><g transform="translate(256.5780889588409 208.75600444906155) rotate(20.792510096047028 -35.17373667337907 9.483213126330611)"><path d="M-1.03 0.36 C-2.39 1.06, 2.57 0.25, -9.03 3.51 C-20.64 6.78, -60.4 17.45, -70.67 19.93 M0.62 -0.49 C-0.82 -0.05, 1.94 -1.11, -10.1 1.99 C-22.14 5.09, -61.53 15.22, -71.6 18.1" stroke="#9c36b5" stroke-width="2" fill="none"></path></g><g transform="translate(256.5780889588409 208.75600444906155) rotate(20.792510096047028 -35.17373667337907 9.483213126330611)"><path d="M-51.14 3.73 C-55.17 6.36, -58.44 9.42, -71.6 18.1 M-51.14 3.73 C-59.05 9.54, -66.83 13.97, -71.6 18.1" stroke="#9c36b5" stroke-width="2" fill="none"></path></g><g transform="translate(256.5780889588409 208.75600444906155) rotate(20.792510096047028 -35.17373667337907 9.483213126330611)"><path d="M-46.69 20.24 C-51.62 19.16, -55.88 18.54, -71.6 18.1 M-46.69 20.24 C-56.26 19.75, -65.73 17.89, -71.6 18.1" stroke="#9c36b5" stroke-width="2" fill="none"></path></g></g><mask></mask><g transform="translate(264.96031188964844 210.50756189330338) rotate(0 133.64791870117188 10)"><text x="0" y="14.016" font-family="Virgil, Segoe UI Emoji" font-size="16px" fill="#9c36b5" text-anchor="start" style="white-space: pre;" direction="ltr" dominant-baseline="alphabetic">Hostname should always be unique</text></g><g stroke-linecap="round"><g transform="translate(224.4993773062074 342.36179654597896) rotate(20.792510096047028 -24.80166704541108 11.918661612194114)"><path d="M0.81 0.43 C-3.1 1, -14.71 -0.81, -23.23 2.98 C-31.74 6.77, -45.77 19.88, -50.28 23.16 M-0.22 -0.4 C-4.28 0.37, -15.43 0.08, -23.96 4.16 C-32.49 8.25, -46.99 20.96, -51.41 24.12" stroke="#9c36b5" stroke-width="2" fill="none"></path></g><g transform="translate(224.4993773062074 342.36179654597896) rotate(20.792510096047028 -24.80166704541108 11.918661612194114)"><path d="M-42.75 10.15 C-45 15.27, -49.28 18.25, -51.41 24.12 M-42.75 10.15 C-44.76 13.22, -47.32 17.39, -51.41 24.12" stroke="#9c36b5" stroke-width="2" fill="none"></path></g><g transform="translate(224.4993773062074 342.36179654597896) rotate(20.792510096047028 -24.80166704541108 11.918661612194114)"><path d="M-35.79 18.98 C-40.24 21.31, -46.76 21.46, -51.41 24.12 M-35.79 18.98 C-39.45 19.84, -43.7 21.86, -51.41 24.12" stroke="#9c36b5" stroke-width="2" fill="none"></path></g></g><mask></mask><g transform="translate(248.08568118191477 342.9075252722096) rotate(0 263.8878173828125 10)"><text x="0" y="14.016" font-family="Virgil, Segoe UI Emoji" font-size="16px" fill="#9c36b5" text-anchor="start" style="white-space: pre;" direction="ltr" dominant-baseline="alphabetic">Port is forwarded to enable co-simulation via REST-API endpoints</text></g><g transform="translate(261.59999084472656 94.90751001342056) rotate(0 223.34388732910156 10)"><text x="0" y="14.016" font-family="Virgil, Segoe UI Emoji" font-size="16px" fill="#9c36b5" text-anchor="start" style="white-space: pre;" direction="ltr" dominant-baseline="alphabetic">Service port is set up using the environment varible port</text></g><g transform="translate(591.3520355224609 200.1075222204518) rotate(0 148.2158966064453 10)"><text x="0" y="14.016" font-family="Virgil, Segoe UI Emoji" font-size="16px" fill="#e03131" text-anchor="start" style="white-space: pre;" direction="ltr" dominant-baseline="alphabetic">API server should start on this port</text></g><g stroke-linecap="round"><g transform="translate(713.9492054764042 198.90751001342056) rotate(0 -22.174576798260716 -12)"><path d="M-0.55 0.02 C-4.34 -0.41, -15.37 1.85, -22.81 -2.06 C-30.25 -5.97, -41.54 -19.61, -45.16 -23.44 M1.36 -1.01 C-2.58 -1.8, -16.45 0.5, -23.79 -3.58 C-31.13 -7.66, -39.27 -22.01, -42.7 -25.49" stroke="#e03131" stroke-width="2" fill="none"></path></g><g transform="translate(713.9492054764042 198.90751001342056) rotate(0 -22.174576798260716 -12)"><path d="M-30.06 -17.42 C-33.77 -19.92, -36.07 -23.22, -42.7 -25.49 M-30.06 -17.42 C-35.18 -20.59, -38.23 -23.48, -42.7 -25.49" stroke="#e03131" stroke-width="2" fill="none"></path></g><g transform="translate(713.9492054764042 198.90751001342056) rotate(0 -22.174576798260716 -12)"><path d="M-38.2 -11.18 C-39.55 -15.47, -39.47 -20.6, -42.7 -25.49 M-38.2 -11.18 C-40.49 -16.45, -40.72 -21.5, -42.7 -25.49" stroke="#e03131" stroke-width="2" fill="none"></path></g></g><mask></mask></svg>