<svg version="1.1" xmlns="http://www.w3.org/2000/svg" viewBox="0 0 658.8156127929688 283.7334049578037" width="658.8156127929688" height="283.7334049578037">
  <!-- svg-source:excalidraw -->
  
  <defs>
    <style class="style-fonts">
      @font-face {
        font-family: "Virgil";
        src: url("https://excalidraw.com/Virgil.woff2");
      }
      @font-face {
        font-family: "Cascadia";
        src: url("https://excalidraw.com/Cascadia.woff2");
      }
      @font-face {
        font-family: "Assistant";
        src: url("https://excalidraw.com/Assistant-Regular.woff2");
      }
    </style>
    
  </defs>
  <g transform="translate(47.399048351507304 10) rotate(0 107.52083587646484 11.384500696257092)"><text x="0" y="15.956516175873944" font-family="Virgil, Segoe UI Emoji" font-size="18.21520111401135px" fill="#2f9e44" text-anchor="start" style="white-space: pre;" direction="ltr" dominant-baseline="alphabetic">oedisi build -m  -p 8766</text></g><g transform="translate(18.254684877802504 12.04923097096966) rotate(0 4.415924072265625 11.384500696257092)"><text x="0" y="15.956516175873944" font-family="Virgil, Segoe UI Emoji" font-size="18.21520111401135px" fill="#e03131" text-anchor="start" style="white-space: pre;" direction="ltr" dominant-baseline="alphabetic">&gt;</text></g><g stroke-linecap="round"><g transform="translate(111.85364121374187 76.3606422217436) rotate(0 26.741009016311068 -16.724186180460734)"><path d="M0.94 0.21 C6.44 -2.25, 23.82 -8.8, 32.46 -14.58 C41.11 -20.36, 49.46 -31.35, 52.82 -34.47 M-0.03 -0.73 C5.32 -2.99, 22.67 -7.48, 31.29 -12.98 C39.91 -18.47, 48.19 -30.5, 51.71 -33.69" stroke="#343a40" stroke-width="2" fill="none"></path></g><g transform="translate(111.85364121374187 76.3606422217436) rotate(0 26.741009016311068 -16.724186180460734)"><path d="M46.53 -20.77 C48.08 -24.63, 49.31 -28.22, 51.71 -33.69 M46.53 -20.77 C47.22 -23.39, 48.66 -26.53, 51.71 -33.69" stroke="#343a40" stroke-width="2" fill="none"></path></g><g transform="translate(111.85364121374187 76.3606422217436) rotate(0 26.741009016311068 -16.724186180460734)"><path d="M39.43 -27.12 C42.82 -29.4, 45.88 -31.36, 51.71 -33.69 M39.43 -27.12 C41.6 -28.39, 44.57 -30.16, 51.71 -33.69" stroke="#343a40" stroke-width="2" fill="none"></path></g></g><mask></mask><g transform="translate(11.80592824307405 80.56554022981385) rotate(0 108.74091339111328 34.15350208877129)"><text x="0" y="15.956516175873944" font-family="Virgil, Segoe UI Emoji" font-size="18.21520111401135px" fill="#343a40" text-anchor="start" style="white-space: pre;" direction="ltr" dominant-baseline="alphabetic">Use this flag to build </text><text x="0" y="38.72551756838813" font-family="Virgil, Segoe UI Emoji" font-size="18.21520111401135px" fill="#343a40" text-anchor="start" style="white-space: pre;" direction="ltr" dominant-baseline="alphabetic">files for docker compose</text><text x="0" y="61.49451896090232" font-family="Virgil, Segoe UI Emoji" font-size="18.21520111401135px" fill="#343a40" text-anchor="start" style="white-space: pre;" direction="ltr" dominant-baseline="alphabetic"> and  kubernetes</text></g><g stroke-linecap="round"><g transform="translate(268.3188533719559 80.8637638147338) rotate(0 -14.549938685831592 -13.083211555392282)"><path d="M-1.03 0.93 C-3.64 -0.37, -10.32 -3.03, -14.84 -7.4 C-19.36 -11.77, -25.76 -22.11, -28.14 -25.29 M0.64 0.37 C-2.15 -1.33, -10.55 -4.66, -15.38 -9.25 C-20.22 -13.84, -26.15 -24.45, -28.4 -27.18" stroke="#343a40" stroke-width="2" fill="none"></path></g><g transform="translate(268.3188533719559 80.8637638147338) rotate(0 -14.549938685831592 -13.083211555392282)"><path d="M-19.16 -20.58 C-21.74 -22.39, -25.57 -24.66, -28.4 -27.18 M-19.16 -20.58 C-22.28 -22.63, -25.93 -25.88, -28.4 -27.18" stroke="#343a40" stroke-width="2" fill="none"></path></g><g transform="translate(268.3188533719559 80.8637638147338) rotate(0 -14.549938685831592 -13.083211555392282)"><path d="M-25.56 -16.19 C-25.77 -19.57, -27.22 -23.48, -28.4 -27.18 M-25.56 -16.19 C-26.29 -19.86, -27.56 -24.74, -28.4 -27.18" stroke="#343a40" stroke-width="2" fill="none"></path></g></g><mask></mask><g transform="translate(287.2504820792244 82.62879956444237) rotate(0 83.89339447021484 34.15350208877129)"><text x="0" y="15.956516175873944" font-family="Virgil, Segoe UI Emoji" font-size="18.21520111401135px" fill="#343a40" text-anchor="start" style="white-space: pre;" direction="ltr" dominant-baseline="alphabetic">Use this option to</text><text x="0" y="38.72551756838813" font-family="Virgil, Segoe UI Emoji" font-size="18.21520111401135px" fill="#343a40" text-anchor="start" style="white-space: pre;" direction="ltr" dominant-baseline="alphabetic">set up broker port</text><text x="0" y="61.49451896090232" font-family="Virgil, Segoe UI Emoji" font-size="18.21520111401135px" fill="#343a40" text-anchor="start" style="white-space: pre;" direction="ltr" dominant-baseline="alphabetic">(default 8766)</text></g><g transform="translate(10 193.7334049578037) rotate(0 319.4078063964844 40)"><text x="0" y="14.016" font-family="Virgil, Segoe UI Emoji" font-size="16px" fill="#e03131" text-anchor="start" style="white-space: pre;" direction="ltr" dominant-baseline="alphabetic">This CLI command builds files for both DOCKER COMPOSE and KUBERNETES</text><text x="0" y="34.016" font-family="Virgil, Segoe UI Emoji" font-size="16px" fill="#e03131" text-anchor="start" style="white-space: pre;" direction="ltr" dominant-baseline="alphabetic">in the 'build' folder.</text><text x="0" y="54.016" font-family="Virgil, Segoe UI Emoji" font-size="16px" fill="#e03131" text-anchor="start" style="white-space: pre;" direction="ltr" dominant-baseline="alphabetic"></text><text x="0" y="74.016" font-family="Virgil, Segoe UI Emoji" font-size="16px" fill="#e03131" text-anchor="start" style="white-space: pre;" direction="ltr" dominant-baseline="alphabetic">Each participating federate is assigned a port number using 'environment variabe</text></g></svg>