<svg version="1.1" xmlns="http://www.w3.org/2000/svg" viewBox="0 0 731.8292590760827 508.1572092106017" width="731.8292590760827" height="508.1572092106017">
  <!-- svg-source:excalidraw -->
  
  <defs>
    <style class="style-fonts">
      @font-face {
        font-family: "Virgil";
        src: url("https://excalidraw.com/Virgil.woff2");
      }
      @font-face {
        font-family: "Cascadia";
        src: url("https://excalidraw.com/Cascadia.woff2");
      }
      @font-face {
        font-family: "Assistant";
        src: url("https://excalidraw.com/Assistant-Regular.woff2");
      }
    </style>
    
  </defs>
  <g transform="translate(12.184380170516192 359.30657578304016) rotate(0 220.5528469558953 29.083401897890838)"><text x="0" y="13.587765366694606" font-family="Virgil, Segoe UI Emoji" font-size="15.511147678875123px" fill="#e03131" text-anchor="start" style="white-space: pre;" direction="ltr" dominant-baseline="alphabetic">4. (Optional) A running co-simualtion can be terminated by</text><text x="0" y="32.97669996528851" font-family="Virgil, Segoe UI Emoji" font-size="15.511147678875123px" fill="#e03131" text-anchor="start" style="white-space: pre;" direction="ltr" dominant-baseline="alphabetic">    making a GEt request to</text><text x="0" y="52.36563456388241" font-family="Virgil, Segoe UI Emoji" font-size="15.511147678875123px" fill="#e03131" text-anchor="start" style="white-space: pre;" direction="ltr" dominant-baseline="alphabetic">   </text></g><g transform="translate(11.811331465122862 10) rotate(0 180.27048921293817 19.388934598593906)"><text x="0" y="13.587765366694606" font-family="Virgil, Segoe UI Emoji" font-size="15.511147678875123px" fill="#e03131" text-anchor="start" style="white-space: pre;" direction="ltr" dominant-baseline="alphabetic">1. Make a POST request to </text><text x="0" y="32.97669996528851" font-family="Virgil, Segoe UI Emoji" font-size="15.511147678875123px" fill="#e03131" text-anchor="start" style="white-space: pre;" direction="ltr" dominant-baseline="alphabetic">    pass the               as        payload </text></g><g transform="translate(234.0815248468199 11.034090168266118) rotate(0 82.81393958935654 9.694467299296946)"><text x="0" y="13.587765366694606" font-family="Virgil, Segoe UI Emoji" font-size="15.511147678875123px" fill="#2f9e44" text-anchor="start" style="white-space: pre;" direction="ltr" dominant-baseline="alphabetic">{broker api}/configure</text></g><g transform="translate(256.7007428459998 31.883087469080067) rotate(0 20.2575432476431 9.694467299296946)"><text x="0" y="13.587765366694606" font-family="Virgil, Segoe UI Emoji" font-size="15.511147678875123px" fill="#2f9e44" text-anchor="start" style="white-space: pre;" direction="ltr" dominant-baseline="alphabetic">JSON</text></g><g transform="translate(118.70789810589304 29.467627747189482) rotate(0 50.24832219652711 9.69446729929696)"><text x="0" y="13.587765366694606" font-family="Virgil, Segoe UI Emoji" font-size="15.511147678875123px" fill="#2f9e44" text-anchor="start" style="white-space: pre;" direction="ltr" dominant-baseline="alphabetic">WiringDiagram</text></g><g transform="translate(133.63898788826236 62.83345478045081) rotate(0 159.06668217169266 19.388934598593906)"><text x="0" y="13.587765366694606" font-family="Virgil, Segoe UI Emoji" font-size="15.511147678875123px" fill="#9c36b5" text-anchor="start" style="white-space: pre;" direction="ltr" dominant-baseline="alphabetic">This sets up  INPUT_MAPPING and </text><text x="0" y="32.97669996528851" font-family="Virgil, Segoe UI Emoji" font-size="15.511147678875123px" fill="#9c36b5" text-anchor="start" style="white-space: pre;" direction="ltr" dominant-baseline="alphabetic">STATIC_INPUTS files on each federate</text></g><g stroke-linecap="round"><g transform="translate(118.72142959663665 84.26469317848782) rotate(0 -17.059306687155583 -12.431397936777017)"><path d="M-0.14 0.97 C-4.42 -0.43, -20.5 -4.7, -26.32 -9.07 C-32.13 -13.43, -33.83 -22.56, -35.04 -25.22 M-1.67 0.44 C-6.05 -0.68, -22.12 -3.35, -27.28 -7.44 C-32.44 -11.53, -31.66 -21.33, -32.62 -24.09" stroke="#9c36b5" stroke-width="2" fill="none"></path></g><g transform="translate(118.72142959663665 84.26469317848782) rotate(0 -17.059306687155583 -12.431397936777017)"><path d="M-28.46 -16.41 C-28.74 -18.34, -30.35 -20.88, -32.62 -24.09 M-28.46 -16.41 C-29.2 -18.57, -30.84 -20.38, -32.62 -24.09" stroke="#9c36b5" stroke-width="2" fill="none"></path></g><g transform="translate(118.72142959663665 84.26469317848782) rotate(0 -17.059306687155583 -12.431397936777017)"><path d="M-34.37 -15.53 C-33.18 -17.67, -33.34 -20.43, -32.62 -24.09 M-34.37 -15.53 C-33.52 -17.92, -33.56 -19.97, -32.62 -24.09" stroke="#9c36b5" stroke-width="2" fill="none"></path></g></g><mask></mask><g transform="translate(10 139.94970141296594) rotate(0 148.0770591294307 48.47233649648477)"><text x="0" y="13.587765366694606" font-family="Virgil, Segoe UI Emoji" font-size="15.511147678875123px" fill="#e03131" text-anchor="start" style="white-space: pre;" direction="ltr" dominant-baseline="alphabetic">2 (Optional) Make POST requests to </text><text x="0" y="32.97669996528851" font-family="Virgil, Segoe UI Emoji" font-size="15.511147678875123px" fill="#e03131" text-anchor="start" style="white-space: pre;" direction="ltr" dominant-baseline="alphabetic">    </text><text x="0" y="52.36563456388241" font-family="Virgil, Segoe UI Emoji" font-size="15.511147678875123px" fill="#e03131" text-anchor="start" style="white-space: pre;" direction="ltr" dominant-baseline="alphabetic">    i.</text><text x="0" y="71.75456916247632" font-family="Virgil, Segoe UI Emoji" font-size="15.511147678875123px" fill="#e03131" text-anchor="start" style="white-space: pre;" direction="ltr" dominant-baseline="alphabetic">    </text><text x="0" y="91.14350376107022" font-family="Virgil, Segoe UI Emoji" font-size="15.511147678875123px" fill="#e03131" text-anchor="start" style="white-space: pre;" direction="ltr" dominant-baseline="alphabetic">    ii.</text></g><g transform="translate(73.63095412616462 221.61585555441866) rotate(0 69.567435802609 9.694467299296946)"><text x="0" y="13.587765366694606" font-family="Virgil, Segoe UI Emoji" font-size="15.511147678875123px" fill="#2f9e44" text-anchor="start" style="white-space: pre;" direction="ltr" dominant-baseline="alphabetic">{broker api}/model</text></g><g transform="translate(69.36877138715988 179.17156265704426) rotate(0 77.08257099537485 9.694467299296946)"><text x="0" y="13.587765366694606" font-family="Virgil, Segoe UI Emoji" font-size="15.511147678875123px" fill="#2f9e44" text-anchor="start" style="white-space: pre;" direction="ltr" dominant-baseline="alphabetic">{broker api}/profiles</text></g><g transform="translate(299.6162736852566 164.75516555452356) rotate(0 211.1064926954131 29.083401897890866)"><text x="0" y="13.587765366694606" font-family="Virgil, Segoe UI Emoji" font-size="15.511147678875123px" fill="#9c36b5" text-anchor="start" style="white-space: pre;" direction="ltr" dominant-baseline="alphabetic">ZIP file containing load and PV profiles</text><text x="0" y="32.97669996528851" font-family="Virgil, Segoe UI Emoji" font-size="15.511147678875123px" fill="#9c36b5" text-anchor="start" style="white-space: pre;" direction="ltr" dominant-baseline="alphabetic">I. load profiles should be in a 'load_profiles' subfolder</text><text x="0" y="52.36563456388241" font-family="Virgil, Segoe UI Emoji" font-size="15.511147678875123px" fill="#9c36b5" text-anchor="start" style="white-space: pre;" direction="ltr" dominant-baseline="alphabetic">II. pv profiles should be in a 'pv_profiles' subfolder </text></g><g transform="translate(288.9250470857294 237.67218177160527) rotate(0 151.59808444554608 19.38893459859389)"><text x="0" y="13.587765366694608" font-family="Virgil, Segoe UI Emoji" font-size="15.511147678875126px" fill="#9c36b5" text-anchor="start" style="white-space: pre;" direction="ltr" dominant-baseline="alphabetic">ZIP file containing the OpenDSS model </text><text x="0" y="32.97669996528852" font-family="Virgil, Segoe UI Emoji" font-size="15.511147678875126px" fill="#9c36b5" text-anchor="start" style="white-space: pre;" direction="ltr" dominant-baseline="alphabetic">Should have a  "master.dss" file</text></g><g stroke-linecap="round"><g transform="translate(287.7886258052235 186.85578202102414) rotate(0 -17.048893545800894 0.4932490158734879)"><path d="M-0.48 -0.05 C-6.2 0.15, -28.33 0.92, -33.98 1.09 M0.27 -0.56 C-5.53 -0.52, -28.5 -0.18, -34.35 0.18" stroke="#9c36b5" stroke-width="2" fill="none"></path></g><g transform="translate(287.7886258052235 186.85578202102414) rotate(0 -17.048893545800894 0.4932490158734879)"><path d="M-18.53 -6.2 C-24.2 -3.83, -29.54 -2.16, -34.35 0.18 M-18.53 -6.2 C-22.97 -4.67, -28.49 -2.74, -34.35 0.18" stroke="#9c36b5" stroke-width="2" fill="none"></path></g><g transform="translate(287.7886258052235 186.85578202102414) rotate(0 -17.048893545800894 0.4932490158734879)"><path d="M-18.13 5.46 C-23.93 3.71, -29.41 1.26, -34.35 0.18 M-18.13 5.46 C-22.66 3.47, -28.3 1.89, -34.35 0.18" stroke="#9c36b5" stroke-width="2" fill="none"></path></g></g><mask></mask><g stroke-linecap="round"><g transform="translate(282.62985080295283 258.1054673633599) rotate(0 -19.535053900649586 -9.452100509563337)"><path d="M0.95 0.64 C-2.23 0.13, -13.51 1.35, -20.01 -2.09 C-26.5 -5.53, -34.66 -16.99, -38 -19.97 M-0.01 -0.06 C-3.17 -1.02, -14 -0.73, -20.37 -3.92 C-26.73 -7.11, -34.89 -16.63, -38.21 -19.22" stroke="#9c36b5" stroke-width="2" fill="none"></path></g><g transform="translate(282.62985080295283 258.1054673633599) rotate(0 -19.535053900649586 -9.452100509563337)"><path d="M-27.07 -14.48 C-28.91 -14.31, -31.45 -15.41, -38.21 -19.22 M-27.07 -14.48 C-28.85 -15.66, -31.24 -16.26, -38.21 -19.22" stroke="#9c36b5" stroke-width="2" fill="none"></path></g><g transform="translate(282.62985080295283 258.1054673633599) rotate(0 -19.535053900649586 -9.452100509563337)"><path d="M-32.72 -8.43 C-33.37 -9.63, -34.67 -12.06, -38.21 -19.22 M-32.72 -8.43 C-33.26 -10.83, -34.46 -12.71, -38.21 -19.22" stroke="#9c36b5" stroke-width="2" fill="none"></path></g></g><mask></mask><g transform="translate(13.587245456090955 282.52975151173086) rotate(0 114.75138106277521 9.694467299296946)"><text x="0" y="13.587765366694606" font-family="Virgil, Segoe UI Emoji" font-size="15.511147678875123px" fill="#e03131" text-anchor="start" style="white-space: pre;" direction="ltr" dominant-baseline="alphabetic">3. Make a POST requests to</text></g><g transform="translate(256.76599966946907 284.01558235785217) rotate(0 61.02855918268544 9.694467299296946)"><text x="0" y="13.587765366694606" font-family="Virgil, Segoe UI Emoji" font-size="15.511147678875123px" fill="#2f9e44" text-anchor="start" style="white-space: pre;" direction="ltr" dominant-baseline="alphabetic">{broker api}/run</text></g><g transform="translate(178.76865427074364 317.33767657402535) rotate(0 144.7033679415822 9.694467299296946)"><text x="0" y="13.587765366694606" font-family="Virgil, Segoe UI Emoji" font-size="15.511147678875123px" fill="#9c36b5" text-anchor="start" style="white-space: pre;" direction="ltr" dominant-baseline="alphabetic">Starts co-simulation on all federates</text></g><g stroke-linecap="round"><g transform="translate(162.7640206974151 325.789009499304) rotate(0 -25.92832800915673 -7.814037819238024)"><path d="M-0.41 0.12 C-5.85 -0.9, -23.46 -3.42, -32.12 -5.93 C-40.77 -8.43, -49.22 -13.45, -52.31 -14.93 M1.57 -0.87 C-3.54 -1.78, -20.71 -2.22, -29.85 -4.89 C-39 -7.56, -49.38 -14.9, -53.32 -16.9" stroke="#9c36b5" stroke-width="2" fill="none"></path></g><g transform="translate(162.7640206974151 325.789009499304) rotate(0 -25.92832800915673 -7.814037819238024)"><path d="M-41.91 -14.81 C-45.73 -16.4, -50.7 -16.73, -53.32 -16.9 M-41.91 -14.81 C-45.46 -15.44, -50.29 -16.15, -53.32 -16.9" stroke="#9c36b5" stroke-width="2" fill="none"></path></g><g transform="translate(162.7640206974151 325.789009499304) rotate(0 -25.92832800915673 -7.814037819238024)"><path d="M-45.92 -7.97 C-48.37 -11.9, -51.96 -14.59, -53.32 -16.9 M-45.92 -7.97 C-48.1 -11.08, -51.49 -14.24, -53.32 -16.9" stroke="#9c36b5" stroke-width="2" fill="none"></path></g></g><mask></mask><g transform="translate(11.420709514137002 446.1645412176891) rotate(0 109.80334483444582 19.38893459859389)"><text x="0" y="13.587765366694606" font-family="Virgil, Segoe UI Emoji" font-size="15.511147678875123px" fill="#e03131" text-anchor="start" style="white-space: pre;" direction="ltr" dominant-baseline="alphabetic">5. Make a GET request to </text><text x="0" y="32.97669996528851" font-family="Virgil, Segoe UI Emoji" font-size="15.511147678875123px" fill="#e03131" text-anchor="start" style="white-space: pre;" direction="ltr" dominant-baseline="alphabetic">   </text></g><g transform="translate(248.41912803668725 379.7374982214983) rotate(0 85.65248245476664 9.694467299296974)"><text x="0" y="13.587765366694608" font-family="Virgil, Segoe UI Emoji" font-size="15.51114767887512px" fill="#2f9e44" text-anchor="start" style="white-space: pre;" direction="ltr" dominant-baseline="alphabetic">{broker api}/terminate</text></g><g transform="translate(173.1851585709295 478.7682746120078) rotate(0 158.21358798386098 9.694467299296946)"><text x="0" y="13.587765366694606" font-family="Virgil, Segoe UI Emoji" font-size="15.511147678875123px" fill="#9c36b5" text-anchor="start" style="white-space: pre;" direction="ltr" dominant-baseline="alphabetic">Download all recorders in a single zip file</text></g><g stroke-linecap="round"><g transform="translate(162.35878512363394 491.28401956900115) rotate(0 -25.92832800915673 -7.814037819238024)"><path d="M-0.32 -0.06 C-5.41 -0.81, -21.84 -1.14, -30.57 -3.82 C-39.3 -6.5, -49.15 -14.13, -52.69 -16.12 M1.71 -1.13 C-3.47 -2.26, -22.49 -3.01, -31.15 -5.33 C-39.81 -7.66, -46.83 -13.5, -50.24 -15.07" stroke="#9c36b5" stroke-width="2" fill="none"></path></g><g transform="translate(162.35878512363394 491.28401956900115) rotate(0 -25.92832800915673 -7.814037819238024)"><path d="M-38.84 -12.94 C-42.28 -12.93, -44.49 -15.04, -50.24 -15.07 M-38.84 -12.94 C-42.18 -13.08, -44.96 -13.66, -50.24 -15.07" stroke="#9c36b5" stroke-width="2" fill="none"></path></g><g transform="translate(162.35878512363394 491.28401956900115) rotate(0 -25.92832800915673 -7.814037819238024)"><path d="M-42.87 -6.11 C-45.16 -8.12, -46.18 -12.25, -50.24 -15.07 M-42.87 -6.11 C-45.18 -8.01, -46.91 -10.36, -50.24 -15.07" stroke="#9c36b5" stroke-width="2" fill="none"></path></g></g><mask></mask><g transform="translate(237.11680068513124 445.3810590638504) rotate(0 76.49315164384153 9.694467299296946)"><text x="0" y="13.587765366694606" font-family="Virgil, Segoe UI Emoji" font-size="15.511147678875123px" fill="#2f9e44" text-anchor="start" style="white-space: pre;" direction="ltr" dominant-baseline="alphabetic">{broker api}/results</text></g></svg>